<svg width="95" height="36" viewBox="0 0 95 36" fill="none" xmlns="http://www.w3.org/2000/svg">
<path d="M42 24.5809V6.29454H49.7832C51.0515 6.29454 52.1387 6.50727 53.0447 6.93273C53.9507 7.35818 54.6425 7.97182 55.1202 8.77364C55.5979 9.55909 55.8368 10.5164 55.8368 11.6455C55.8368 12.4473 55.6144 13.2164 55.1696 13.9527C54.7249 14.6727 53.9919 15.2782 52.9706 15.7691V13.9036C53.9424 14.28 54.6919 14.73 55.219 15.2536C55.7462 15.7773 56.1086 16.35 56.3062 16.9718C56.5039 17.5773 56.6027 18.2155 56.6027 18.8864C56.6027 20.6864 56.0015 22.0855 54.799 23.0836C53.5965 24.0818 51.9246 24.5809 49.7832 24.5809H42ZM45.8298 21.2673H50.2279C51.0021 21.2673 51.6198 21.0464 52.0811 20.6045C52.5423 20.1627 52.7729 19.59 52.7729 18.8864C52.7729 18.1664 52.5423 17.5855 52.0811 17.1436C51.6198 16.7018 51.0021 16.4809 50.2279 16.4809H45.8298V21.2673ZM45.8298 13.1673H50.055C50.648 13.1673 51.1174 13.0036 51.4634 12.6764C51.8257 12.3327 52.0069 11.8827 52.0069 11.3264C52.0069 10.77 51.8257 10.3282 51.4634 10.0009C51.1174 9.65727 50.648 9.48546 50.055 9.48546H45.8298V13.1673Z" fill="#141624"/>
<path d="M58.7877 24.5809V6H62.494V24.5809H58.7877Z" fill="#141624"/>
<path d="M71.9021 24.8755C70.5678 24.8755 69.3489 24.5727 68.2452 23.9673C67.1581 23.3618 66.285 22.5355 65.6261 21.4882C64.9837 20.4245 64.6625 19.2218 64.6625 17.88C64.6625 16.5218 64.9837 15.3191 65.6261 14.2718C66.285 13.2245 67.1581 12.3982 68.2452 11.7927C69.3489 11.1873 70.5678 10.8845 71.9021 10.8845C73.2364 10.8845 74.4471 11.1873 75.5343 11.7927C76.6214 12.3982 77.4862 13.2245 78.1286 14.2718C78.7875 15.3191 79.117 16.5218 79.117 17.88C79.117 19.2218 78.7875 20.4245 78.1286 21.4882C77.4862 22.5355 76.6214 23.3618 75.5343 23.9673C74.4471 24.5727 73.2364 24.8755 71.9021 24.8755ZM71.9021 21.5618C72.5775 21.5618 73.1622 21.4064 73.6564 21.0955C74.1671 20.7845 74.5624 20.3509 74.8424 19.7945C75.1389 19.2382 75.2872 18.6 75.2872 17.88C75.2872 17.16 75.1389 16.53 74.8424 15.99C74.5624 15.4336 74.1671 15 73.6564 14.6891C73.1622 14.3618 72.5775 14.1982 71.9021 14.1982C71.2267 14.1982 70.6337 14.3618 70.1231 14.6891C69.6125 15 69.2089 15.4336 68.9124 15.99C68.6323 16.53 68.4923 17.16 68.4923 17.88C68.4923 18.6 68.6323 19.2382 68.9124 19.7945C69.2089 20.3509 69.6125 20.7845 70.1231 21.0955C70.6337 21.4064 71.2267 21.5618 71.9021 21.5618Z" fill="#141624"/>
<path d="M87.9223 29.9809C86.8845 29.9809 85.9209 29.8091 85.0314 29.4655C84.1419 29.1218 83.3759 28.6391 82.7335 28.0173C82.1075 27.4118 81.6546 26.6918 81.3745 25.8573L84.809 24.6545C84.9902 25.2764 85.3608 25.7673 85.9209 26.1273C86.481 26.4873 87.1481 26.6673 87.9223 26.6673C88.5318 26.6673 89.0589 26.5527 89.5036 26.3236C89.9484 26.1109 90.2861 25.7918 90.5167 25.3664C90.7638 24.9409 90.8873 24.4418 90.8873 23.8691V20.8009L91.6038 21.6845C91.1426 22.4373 90.5496 23.0018 89.8248 23.3782C89.1001 23.7382 88.2517 23.9182 87.2799 23.9182C86.028 23.9182 84.9078 23.64 83.9195 23.0836C82.9312 22.5109 82.157 21.7336 81.5969 20.7518C81.0368 19.7536 80.7568 18.6245 80.7568 17.3645C80.7568 16.1045 81.0368 14.9918 81.5969 14.0264C82.157 13.0445 82.9229 12.2755 83.8948 11.7191C84.8667 11.1627 85.9703 10.8845 87.2057 10.8845C88.1776 10.8845 89.0259 11.0809 89.7507 11.4736C90.4755 11.85 91.0932 12.4309 91.6038 13.2164L91.1344 14.1V11.1791H94.5936V23.8691C94.5936 25.0473 94.3053 26.0945 93.7288 27.0109C93.1522 27.9436 92.3616 28.6718 91.3568 29.1955C90.3684 29.7191 89.2236 29.9809 87.9223 29.9809ZM87.7987 20.58C88.4247 20.58 88.9683 20.4491 89.4295 20.1873C89.8907 19.9255 90.2449 19.5573 90.492 19.0827C90.7555 18.6082 90.8873 18.0518 90.8873 17.4136C90.8873 16.7755 90.7555 16.2191 90.492 15.7445C90.2284 15.2536 89.866 14.8773 89.4048 14.6155C88.9436 14.3373 88.4082 14.1982 87.7987 14.1982C87.1728 14.1982 86.6127 14.3373 86.1186 14.6155C85.6409 14.8773 85.262 15.2536 84.982 15.7445C84.7184 16.2191 84.5866 16.7755 84.5866 17.4136C84.5866 18.0355 84.7184 18.5836 84.982 19.0582C85.262 19.5327 85.6409 19.9091 86.1186 20.1873C86.6127 20.4491 87.1728 20.58 87.7987 20.58Z" fill="#141624"/>
<path d="M18 36C27.9411 36 36 27.9411 36 18C36 8.05888 27.9411 0 18 0C8.05888 0 0 8.05888 0 18C0 22.152 1.40577 25.9756 3.76732 29.021L7.73554 14.0299C9.38672 7.52344 13.6758 4.15725 20.5616 4.15725H22.936C27.7785 4.15725 31.335 8.70307 30.1698 13.4033C29.9609 14.2463 29.5702 15.0334 29.0253 15.7097L27.0045 18.2174C26.486 18.8609 26.2968 19.7092 26.493 20.5121L27.109 23.0338C27.4278 24.339 27.3695 25.708 26.941 26.9814C25.4832 31.3132 21.4227 34.231 16.8521 34.231H10.2086C12.5662 35.3648 15.2089 36 18 36Z" fill="#141624"/>
<path fill-rule="evenodd" clip-rule="evenodd" d="M17.7 21.7592H14.1932C13.0747 21.7592 12.0968 22.5135 11.8129 23.5953L10.4373 28.8354H15.871C17.8811 28.8354 19.6384 27.4799 20.1487 25.5357L20.2666 25.0865C20.7082 23.4043 19.4392 21.7592 17.7 21.7592ZM16.6646 23.3514H14.759C14.1206 23.3514 13.5623 23.7814 13.3993 24.3988L12.6486 27.2432H15.6532C16.7647 27.2432 17.7364 26.4977 18.0186 25.4284L18.0838 25.1814C18.328 24.2562 17.6263 23.3514 16.6646 23.3514Z" fill="#141624"/>
<path fill-rule="evenodd" clip-rule="evenodd" d="M14.9971 11.7427C15.2811 10.6609 16.2589 9.90663 17.3774 9.90663H20.8843C22.6235 9.90663 23.8925 11.5517 23.4509 13.2339L23.333 13.6831C22.8227 15.6273 21.0654 16.9828 19.0553 16.9828H13.6216L14.9971 11.7427ZM16.5836 12.5462C16.7465 11.9289 17.3049 11.4988 17.9433 11.4988H19.8489C20.8106 11.4988 21.5123 12.4036 21.2681 13.3288L21.2029 13.5758C20.9207 14.6451 19.949 15.3907 18.8375 15.3907H15.8329L16.5836 12.5462Z" fill="#141624"/>
</svg>
