<svg width="99" height="36" viewBox="0 0 99 36" fill="none" xmlns="http://www.w3.org/2000/svg">
<path d="M46 24.5809V6.29454H53.7832C55.0515 6.29454 56.1387 6.50727 57.0447 6.93273C57.9507 7.35818 58.6425 7.97182 59.1202 8.77364C59.5979 9.55909 59.8368 10.5164 59.8368 11.6455C59.8368 12.4473 59.6144 13.2164 59.1696 13.9527C58.7249 14.6727 57.9919 15.2782 56.9706 15.7691V13.9036C57.9424 14.28 58.6919 14.73 59.219 15.2536C59.7462 15.7773 60.1086 16.35 60.3062 16.9718C60.5039 17.5773 60.6027 18.2155 60.6027 18.8864C60.6027 20.6864 60.0015 22.0855 58.799 23.0836C57.5965 24.0818 55.9246 24.5809 53.7832 24.5809H46ZM49.8298 21.2673H54.2279C55.0021 21.2673 55.6198 21.0464 56.0811 20.6045C56.5423 20.1627 56.7729 19.59 56.7729 18.8864C56.7729 18.1664 56.5423 17.5855 56.0811 17.1436C55.6198 16.7018 55.0021 16.4809 54.2279 16.4809H49.8298V21.2673ZM49.8298 13.1673H54.055C54.648 13.1673 55.1174 13.0036 55.4634 12.6764C55.8257 12.3327 56.0069 11.8827 56.0069 11.3264C56.0069 10.77 55.8257 10.3282 55.4634 10.0009C55.1174 9.65727 54.648 9.48546 54.055 9.48546H49.8298V13.1673Z" fill="white"/>
<path d="M62.7877 24.5809V6H66.494V24.5809H62.7877Z" fill="white"/>
<path d="M75.9021 24.8755C74.5678 24.8755 73.3489 24.5727 72.2452 23.9673C71.1581 23.3618 70.285 22.5355 69.6261 21.4882C68.9837 20.4245 68.6625 19.2218 68.6625 17.88C68.6625 16.5218 68.9837 15.3191 69.6261 14.2718C70.285 13.2245 71.1581 12.3982 72.2452 11.7927C73.3489 11.1873 74.5678 10.8845 75.9021 10.8845C77.2364 10.8845 78.4471 11.1873 79.5343 11.7927C80.6214 12.3982 81.4862 13.2245 82.1286 14.2718C82.7875 15.3191 83.117 16.5218 83.117 17.88C83.117 19.2218 82.7875 20.4245 82.1286 21.4882C81.4862 22.5355 80.6214 23.3618 79.5343 23.9673C78.4471 24.5727 77.2364 24.8755 75.9021 24.8755ZM75.9021 21.5618C76.5775 21.5618 77.1622 21.4064 77.6564 21.0955C78.167 20.7845 78.5624 20.3509 78.8424 19.7945C79.1389 19.2382 79.2872 18.6 79.2872 17.88C79.2872 17.16 79.1389 16.53 78.8424 15.99C78.5624 15.4336 78.167 15 77.6564 14.6891C77.1622 14.3618 76.5775 14.1982 75.9021 14.1982C75.2267 14.1982 74.6337 14.3618 74.1231 14.6891C73.6124 15 73.2089 15.4336 72.9124 15.99C72.6323 16.53 72.4923 17.16 72.4923 17.88C72.4923 18.6 72.6323 19.2382 72.9124 19.7945C73.2089 20.3509 73.6124 20.7845 74.1231 21.0955C74.6337 21.4064 75.2267 21.5618 75.9021 21.5618Z" fill="white"/>
<path d="M91.9223 29.9809C90.8845 29.9809 89.9209 29.8091 89.0314 29.4655C88.1419 29.1218 87.3759 28.6391 86.7335 28.0173C86.1076 27.4118 85.6546 26.6918 85.3745 25.8573L88.809 24.6545C88.9902 25.2764 89.3608 25.7673 89.9209 26.1273C90.481 26.4873 91.1481 26.6673 91.9223 26.6673C92.5318 26.6673 93.0589 26.5527 93.5036 26.3236C93.9484 26.1109 94.2861 25.7918 94.5167 25.3664C94.7638 24.9409 94.8873 24.4418 94.8873 23.8691V20.8009L95.6038 21.6845C95.1426 22.4373 94.5496 23.0018 93.8248 23.3782C93.1001 23.7382 92.2517 23.9182 91.2799 23.9182C90.028 23.9182 88.9078 23.64 87.9195 23.0836C86.9312 22.5109 86.157 21.7336 85.5969 20.7518C85.0368 19.7536 84.7568 18.6245 84.7568 17.3645C84.7568 16.1045 85.0368 14.9918 85.5969 14.0264C86.157 13.0445 86.9229 12.2755 87.8948 11.7191C88.8667 11.1627 89.9703 10.8845 91.2057 10.8845C92.1776 10.8845 93.0259 11.0809 93.7507 11.4736C94.4755 11.85 95.0932 12.4309 95.6038 13.2164L95.1344 14.1V11.1791H98.5936V23.8691C98.5936 25.0473 98.3053 26.0945 97.7288 27.0109C97.1522 27.9436 96.3616 28.6718 95.3568 29.1955C94.3684 29.7191 93.2236 29.9809 91.9223 29.9809ZM91.7987 20.58C92.4247 20.58 92.9683 20.4491 93.4295 20.1873C93.8907 19.9255 94.2449 19.5573 94.492 19.0827C94.7555 18.6082 94.8873 18.0518 94.8873 17.4136C94.8873 16.7755 94.7555 16.2191 94.492 15.7445C94.2284 15.2536 93.866 14.8773 93.4048 14.6155C92.9436 14.3373 92.4082 14.1982 91.7987 14.1982C91.1728 14.1982 90.6127 14.3373 90.1186 14.6155C89.6409 14.8773 89.262 15.2536 88.982 15.7445C88.7184 16.2191 88.5866 16.7755 88.5866 17.4136C88.5866 18.0355 88.7184 18.5836 88.982 19.0582C89.262 19.5327 89.6409 19.9091 90.1186 20.1873C90.6127 20.4491 91.1728 20.58 91.7987 20.58Z" fill="white"/>
<path d="M18 36C27.9411 36 36 27.9411 36 18C36 8.05888 27.9411 0 18 0C8.05888 0 0 8.05888 0 18C0 22.152 1.40577 25.9756 3.76732 29.021L7.73554 14.0299C9.38672 7.52344 13.6758 4.15725 20.5616 4.15725H22.936C27.7785 4.15725 31.335 8.70307 30.1698 13.4033C29.9609 14.2463 29.5702 15.0334 29.0253 15.7097L27.0045 18.2174C26.486 18.8609 26.2968 19.7092 26.493 20.5121L27.109 23.0338C27.4278 24.339 27.3695 25.708 26.941 26.9814C25.4832 31.3132 21.4227 34.231 16.8521 34.231H10.2086C12.5662 35.3648 15.2089 36 18 36Z" fill="white"/>
<path fill-rule="evenodd" clip-rule="evenodd" d="M17.7 21.7592H14.1932C13.0747 21.7592 12.0968 22.5135 11.8129 23.5953L10.4373 28.8354H15.871C17.8811 28.8354 19.6384 27.4799 20.1487 25.5357L20.2666 25.0865C20.7082 23.4043 19.4392 21.7592 17.7 21.7592ZM16.6646 23.3514H14.759C14.1206 23.3514 13.5623 23.7814 13.3993 24.3988L12.6486 27.2432H15.6532C16.7647 27.2432 17.7364 26.4977 18.0186 25.4284L18.0838 25.1814C18.328 24.2562 17.6263 23.3514 16.6646 23.3514Z" fill="white"/>
<path fill-rule="evenodd" clip-rule="evenodd" d="M14.9971 11.7427C15.2811 10.6609 16.2589 9.90663 17.3774 9.90663H20.8843C22.6235 9.90663 23.8925 11.5517 23.4509 13.2339L23.333 13.6831C22.8227 15.6273 21.0654 16.9828 19.0553 16.9828H13.6216L14.9971 11.7427ZM16.5836 12.5462C16.7465 11.9289 17.3049 11.4988 17.9433 11.4988H19.8489C20.8106 11.4988 21.5123 12.4036 21.2681 13.3288L21.2029 13.5758C20.9207 14.6451 19.949 15.3907 18.8375 15.3907H15.8329L16.5836 12.5462Z" fill="white"/>
</svg>
