<svg width="17" height="16" viewBox="0 0 17 16" fill="none" xmlns="http://www.w3.org/2000/svg">
<path d="M7.50257 2C6.53165 2 5.58253 2.28791 4.77524 2.82733C3.96795 3.36674 3.33874 4.13343 2.96719 5.03045C2.59563 5.92746 2.49842 6.91451 2.68783 7.86677C2.87725 8.81904 3.34479 9.69375 4.03134 10.3803C4.71788 11.0668 5.5926 11.5344 6.54486 11.7238C7.49712 11.9132 8.48417 11.816 9.38119 11.4444C10.2782 11.0729 11.0449 10.4437 11.5843 9.63639C12.1237 8.8291 12.4116 7.87998 12.4116 6.90906C12.4115 5.60712 11.8943 4.35853 10.9737 3.43792C10.0531 2.51731 8.80451 2.00008 7.50257 2Z" stroke="#52525B" stroke-width="1.5" stroke-miterlimit="10"/>
<path d="M11.165 10.5716L14.5935 14" stroke="#52525B" stroke-width="1.5" stroke-miterlimit="10" stroke-linecap="round"/>
</svg>
