<svg width="29" height="28" viewBox="0 0 29 28" fill="none" xmlns="http://www.w3.org/2000/svg">
<g filter="url(#filter0_d_2147_4205)">
<rect x="2.59351" y="1" width="24" height="24" rx="12" fill="white" shape-rendering="crispEdges"/>
<g clip-path="url(#clip0_2147_4205)">
<path d="M13.8826 8.51562C13.723 8.51562 13.57 8.45225 13.4572 8.33943C13.3444 8.22662 13.281 8.07361 13.281 7.91406V6.60156C13.281 6.44202 13.3444 6.28901 13.4572 6.17619C13.57 6.06338 13.723 6 13.8826 6C14.0421 6 14.1951 6.06338 14.3079 6.17619C14.4208 6.28901 14.4841 6.44202 14.4841 6.60156V7.91406C14.4841 8.07361 14.4208 8.22662 14.3079 8.33943C14.1951 8.45225 14.0421 8.51562 13.8826 8.51562ZM13.8826 18.5781C13.723 18.5781 13.57 18.5147 13.4572 18.4019C13.3444 18.2891 13.281 18.1361 13.281 17.9766V16.6641C13.281 16.5045 13.3444 16.3515 13.4572 16.2387C13.57 16.1259 13.723 16.0625 13.8826 16.0625C14.0421 16.0625 14.1951 16.1259 14.3079 16.2387C14.4208 16.3515 14.4841 16.5045 14.4841 16.6641V17.9766C14.4841 18.1361 14.4208 18.2891 14.3079 18.4019C14.1951 18.5147 14.0421 18.5781 13.8826 18.5781ZM16.9762 9.79695C16.8573 9.79694 16.741 9.76166 16.6421 9.69557C16.5432 9.62949 16.4661 9.53557 16.4206 9.42568C16.375 9.31579 16.3631 9.19487 16.3863 9.07819C16.4095 8.96152 16.4667 8.85434 16.5508 8.7702L17.4788 7.84215C17.5921 7.73179 17.7443 7.67049 17.9025 7.67153C18.0607 7.67257 18.2121 7.73587 18.3239 7.84771C18.4358 7.95956 18.4991 8.11095 18.5001 8.26912C18.5011 8.42729 18.4398 8.5795 18.3295 8.69281L17.4014 9.62086C17.3457 9.67677 17.2794 9.7211 17.2064 9.75132C17.1334 9.78154 17.0552 9.79705 16.9762 9.79695ZM9.86085 16.9123C9.74187 16.9123 9.62556 16.877 9.52664 16.8109C9.42772 16.7448 9.35062 16.6508 9.30511 16.5409C9.2596 16.431 9.24771 16.31 9.27094 16.1933C9.29418 16.0766 9.3515 15.9694 9.43565 15.8853L10.3637 14.9573C10.4193 14.9002 10.4857 14.8547 10.5589 14.8235C10.6322 14.7923 10.711 14.776 10.7907 14.7754C10.8703 14.7749 10.9493 14.7902 11.023 14.8205C11.0967 14.8507 11.1637 14.8953 11.22 14.9516C11.2763 15.008 11.3209 15.0749 11.3512 15.1486C11.3814 15.2223 11.3967 15.3013 11.3962 15.381C11.3957 15.4606 11.3793 15.5394 11.3481 15.6127C11.3169 15.686 11.2714 15.7523 11.2144 15.8079L10.2863 16.736C10.2305 16.792 10.1642 16.8364 10.0912 16.8666C10.0182 16.8969 9.93989 16.9124 9.86085 16.9123ZM19.5701 12.8906H18.2576C18.098 12.8906 17.945 12.8272 17.8322 12.7144C17.7194 12.6016 17.656 12.4486 17.656 12.2891C17.656 12.1295 17.7194 11.9765 17.8322 11.8637C17.945 11.7509 18.098 11.6875 18.2576 11.6875H19.5701C19.7296 11.6875 19.8826 11.7509 19.9954 11.8637C20.1083 11.9765 20.1716 12.1295 20.1716 12.2891C20.1716 12.4486 20.1083 12.6016 19.9954 12.7144C19.8826 12.8272 19.7296 12.8906 19.5701 12.8906ZM9.50757 12.8906H8.19507C8.03552 12.8906 7.88251 12.8272 7.7697 12.7144C7.65688 12.6016 7.59351 12.4486 7.59351 12.2891C7.59351 12.1295 7.65688 11.9765 7.7697 11.8637C7.88251 11.7509 8.03552 11.6875 8.19507 11.6875H9.50757C9.66711 11.6875 9.82012 11.7509 9.93294 11.8637C10.0458 11.9765 10.1091 12.1295 10.1091 12.2891C10.1091 12.4486 10.0458 12.6016 9.93294 12.7144C9.82012 12.8272 9.66711 12.8906 9.50757 12.8906ZM17.9043 16.9123C17.8252 16.9124 17.747 16.8969 17.674 16.8666C17.6009 16.8364 17.5346 16.792 17.4788 16.736L16.5508 15.8079C16.4404 15.6946 16.3791 15.5424 16.3802 15.3842C16.3812 15.2261 16.4445 15.0747 16.5563 14.9628C16.6682 14.851 16.8196 14.7877 16.9777 14.7867C17.1359 14.7856 17.2881 14.8469 17.4014 14.9573L18.3295 15.8853C18.4136 15.9694 18.471 16.0766 18.4942 16.1933C18.5174 16.31 18.5055 16.431 18.46 16.5409C18.4145 16.6508 18.3374 16.7448 18.2385 16.8109C18.1396 16.877 18.0233 16.9123 17.9043 16.9123ZM10.7889 9.79695C10.7099 9.79711 10.6317 9.78163 10.5587 9.7514C10.4857 9.72118 10.4194 9.67681 10.3637 9.62086L9.43565 8.69281C9.32529 8.5795 9.264 8.42729 9.26504 8.26912C9.26608 8.11095 9.32938 7.95956 9.44122 7.84771C9.55306 7.73587 9.70446 7.67257 9.86263 7.67153C10.0208 7.67049 10.173 7.73179 10.2863 7.84215L11.2144 8.7702C11.2984 8.85434 11.3557 8.96152 11.3789 9.07819C11.402 9.19487 11.3901 9.31579 11.3446 9.42568C11.299 9.53557 11.2219 9.62949 11.123 9.69557C11.0241 9.76166 10.9078 9.79694 10.7889 9.79695ZM13.8826 15.0781C13.3309 15.0781 12.7917 14.9145 12.333 14.6081C11.8744 14.3016 11.5169 13.866 11.3058 13.3564C11.0947 12.8468 11.0395 12.286 11.1471 11.7449C11.2547 11.2039 11.5203 10.707 11.9104 10.3169C12.3005 9.92684 12.7974 9.66121 13.3384 9.55359C13.8795 9.44597 14.4403 9.50121 14.9499 9.7123C15.4595 9.9234 15.8951 10.2809 16.2016 10.7395C16.5081 11.1982 16.6716 11.7374 16.6716 12.2891C16.6708 13.0285 16.3766 13.7374 15.8538 14.2603C15.3309 14.7831 14.622 15.0773 13.8826 15.0781Z" fill="#52535F"/>
</g>
</g>
<defs>
<filter id="filter0_d_2147_4205" x="0.593506" y="0" width="28" height="28" filterUnits="userSpaceOnUse" color-interpolation-filters="sRGB">
<feFlood flood-opacity="0" result="BackgroundImageFix"/>
<feColorMatrix in="SourceAlpha" type="matrix" values="0 0 0 0 0 0 0 0 0 0 0 0 0 0 0 0 0 0 127 0" result="hardAlpha"/>
<feOffset dy="1"/>
<feGaussianBlur stdDeviation="1"/>
<feComposite in2="hardAlpha" operator="out"/>
<feColorMatrix type="matrix" values="0 0 0 0 0 0 0 0 0 0 0 0 0 0 0 0 0 0 0.12 0"/>
<feBlend mode="normal" in2="BackgroundImageFix" result="effect1_dropShadow_2147_4205"/>
<feBlend mode="normal" in="SourceGraphic" in2="effect1_dropShadow_2147_4205" result="shape"/>
</filter>
<clipPath id="clip0_2147_4205">
<rect width="14" height="14" fill="white" transform="translate(7.59351 6)"/>
</clipPath>
</defs>
</svg>
